<svg width="203" height="96" viewBox="0 0 203 96" fill="none" xmlns="http://www.w3.org/2000/svg">
<path d="M23.1676 72.272V72.24C25.0396 72.112 26.3996 71.04 26.3996 69.488C26.3996 67.68 25.0716 66.8 22.6556 66.8H18.4956V66.928C19.5516 66.976 19.7596 67.312 19.7596 68.192V76.448C19.7596 77.6 19.5516 77.824 18.4956 77.872V78H22.9436C25.4396 78 26.9116 76.912 26.9116 75.12C26.9116 73.264 25.4236 72.288 23.1676 72.272ZM22.2556 67.024C24.1756 67.024 25.2476 67.84 25.2476 69.52C25.2476 71.424 24.2876 72.176 22.1916 72.176H20.8476V67.024H22.2556ZM22.7356 77.776H20.8476V72.432H22.6716C24.5916 72.432 25.7596 73.296 25.7596 75.136C25.7596 76.896 24.6396 77.776 22.7356 77.776ZM38.1408 66.8H34.5248V66.928C35.8528 66.96 36.3968 67.456 36.3968 68.672V73.504C36.3968 76.32 35.3728 77.728 33.2288 77.728C31.1168 77.728 30.0448 76.304 30.0448 73.584V68.192C30.0448 67.184 30.2528 66.976 31.3088 66.928V66.8H27.6288V66.928C28.6848 66.976 28.8928 67.312 28.8928 68.192V73.824C28.8928 76.8 30.4128 78.32 32.9408 78.32C35.5487 78.32 36.7168 76.752 36.7168 73.744V68.672C36.7168 67.44 37.1328 66.96 38.1408 66.928V66.8ZM42.2489 78.32C44.6009 78.32 46.0569 77.12 46.0569 75.088C46.0569 73.616 45.2729 72.752 43.7369 72.08L41.9929 71.296C40.3609 70.576 39.7369 70.112 39.7369 68.928C39.7369 67.552 40.7609 66.784 42.2969 66.784C44.3769 66.784 45.3689 68 45.5289 70.48H45.6409V67.168C44.5369 66.608 43.4969 66.48 42.6969 66.48C40.5209 66.48 39.0649 67.584 39.0649 69.408C39.0649 70.976 39.9289 71.792 41.5769 72.496L43.0969 73.168C44.5209 73.776 45.2089 74.368 45.2089 75.6C45.2089 77.152 44.2169 78.016 42.6169 78.016C40.3769 78.016 39.3049 76.464 39.1449 74.176H39.0169V77.52C39.9609 78.016 41.1289 78.32 42.2489 78.32ZM50.7991 66.928V66.8H47.1831V66.928C48.2391 66.976 48.4471 67.312 48.4471 68.192V76.448C48.4471 77.6 48.2391 77.824 47.1831 77.872V78H50.7991V77.872C49.7431 77.824 49.5351 77.6 49.5351 76.448V68.192C49.5351 67.184 49.7431 66.976 50.7991 66.928ZM59.0733 66.8V66.928C60.3212 66.976 60.8013 67.376 60.8013 68.704V75.808L54.0173 66.8H51.7613V66.928C52.5613 66.944 52.9453 67.312 53.3293 67.808V75.92C53.3293 77.36 52.9133 77.84 51.7613 77.872V78H55.3773V77.872C54.1293 77.824 53.6493 77.424 53.6493 75.92V68.24L61.0733 78.16H61.1213V68.704C61.1213 67.44 61.5373 66.976 62.6893 66.928V66.8H59.0733ZM71.4659 73.952C71.0179 76.896 70.4899 77.776 67.9619 77.776H65.7539V72.368H67.3539C68.6819 72.368 69.1459 72.912 69.4019 74.608H69.5299V69.92H69.4019C69.1459 71.616 68.6819 72.144 67.3539 72.144H65.7539V67.024H68.0099C70.1379 67.024 70.6019 67.792 71.1779 70.224H71.3059L70.9539 66.8H63.4019V66.928C64.4579 66.976 64.6659 67.312 64.6659 68.192V76.448C64.6659 77.6 64.4579 77.824 63.4019 77.872V78H71.1939L71.5939 73.952H71.4659ZM76.3426 78.32C78.6946 78.32 80.1506 77.12 80.1506 75.088C80.1506 73.616 79.3666 72.752 77.8306 72.08L76.0866 71.296C74.4546 70.576 73.8306 70.112 73.8306 68.928C73.8306 67.552 74.8546 66.784 76.3906 66.784C78.4706 66.784 79.4626 68 79.6226 70.48H79.7346V67.168C78.6306 66.608 77.5906 66.48 76.7906 66.48C74.6146 66.48 73.1586 67.584 73.1586 69.408C73.1586 70.976 74.0226 71.792 75.6706 72.496L77.1906 73.168C78.6146 73.776 79.3026 74.368 79.3026 75.6C79.3026 77.152 78.3106 78.016 76.7106 78.016C74.4706 78.016 73.3986 76.464 73.2386 74.176H73.1106V77.52C74.0546 78.016 75.2226 78.32 76.3426 78.32ZM84.7489 78.32C87.1009 78.32 88.5569 77.12 88.5569 75.088C88.5569 73.616 87.7729 72.752 86.2369 72.08L84.4929 71.296C82.8609 70.576 82.2369 70.112 82.2369 68.928C82.2369 67.552 83.2609 66.784 84.7969 66.784C86.8769 66.784 87.8689 68 88.0289 70.48H88.1409V67.168C87.0369 66.608 85.9969 66.48 85.1969 66.48C83.0209 66.48 81.5649 67.584 81.5649 69.408C81.5649 70.976 82.4289 71.792 84.0769 72.496L85.5969 73.168C87.0209 73.776 87.7089 74.368 87.7089 75.6C87.7089 77.152 86.7169 78.016 85.1169 78.016C82.8769 78.016 81.8049 76.464 81.6449 74.176H81.5169V77.52C82.4609 78.016 83.6289 78.32 84.7489 78.32ZM97.1946 66.8H93.3706V66.928C94.4266 66.976 94.6346 67.312 94.6346 68.192V76.448C94.6346 77.6 94.4266 77.824 93.3706 77.872V78H97.1946C101.019 78 103.195 75.968 103.195 72.4C103.195 68.832 101.019 66.8 97.1946 66.8ZM96.9066 77.776H95.7226V67.024H96.9066C100.283 67.024 101.915 68.592 101.915 72.4C101.915 76.208 100.283 77.776 96.9066 77.776ZM112.466 73.952C112.018 76.896 111.49 77.776 108.962 77.776H106.754V72.368H108.354C109.682 72.368 110.146 72.912 110.402 74.608H110.53V69.92H110.402C110.146 71.616 109.682 72.144 108.354 72.144H106.754V67.024H109.01C111.138 67.024 111.602 67.792 112.178 70.224H112.306L111.954 66.8H104.402V66.928C105.458 66.976 105.666 67.312 105.666 68.192V76.448C105.666 77.6 105.458 77.824 104.402 77.872V78H112.194L112.594 73.952H112.466ZM117.343 78.32C119.695 78.32 121.151 77.12 121.151 75.088C121.151 73.616 120.367 72.752 118.831 72.08L117.087 71.296C115.455 70.576 114.831 70.112 114.831 68.928C114.831 67.552 115.855 66.784 117.391 66.784C119.471 66.784 120.463 68 120.623 70.48H120.735V67.168C119.631 66.608 118.591 66.48 117.791 66.48C115.615 66.48 114.159 67.584 114.159 69.408C114.159 70.976 115.023 71.792 116.671 72.496L118.191 73.168C119.615 73.776 120.303 74.368 120.303 75.6C120.303 77.152 119.311 78.016 117.711 78.016C115.471 78.016 114.399 76.464 114.239 74.176H114.111V77.52C115.055 78.016 116.223 78.32 117.343 78.32ZM125.893 66.928V66.8H122.277V66.928C123.333 66.976 123.541 67.312 123.541 68.192V76.448C123.541 77.6 123.333 77.824 122.277 77.872V78H125.893V77.872C124.837 77.824 124.629 77.6 124.629 76.448V68.192C124.629 67.184 124.837 66.976 125.893 66.928ZM137.655 72.656H132.951V72.784C134.999 72.976 135.335 73.216 135.335 74.448V77.024C134.935 77.6 133.863 78.016 132.759 78.016C130.087 78.016 128.263 75.696 128.263 72.288C128.263 68.912 129.943 66.784 132.615 66.784C134.743 66.784 136.007 68.144 136.087 70.544H136.247V66.976C135.175 66.656 133.991 66.48 132.935 66.48C129.287 66.48 127.015 68.736 127.015 72.368C127.015 75.92 129.351 78.32 132.791 78.32C134.119 78.32 135.303 77.952 136.391 77.2V74.048C136.391 73.04 136.599 72.832 137.655 72.784V72.656ZM145.855 66.8V66.928C147.102 66.976 147.583 67.376 147.583 68.704V75.808L140.799 66.8H138.543V66.928C139.343 66.944 139.727 67.312 140.111 67.808V75.92C140.111 77.36 139.695 77.84 138.543 77.872V78H142.159V77.872C140.911 77.824 140.431 77.424 140.431 75.92V68.24L147.855 78.16H147.903V68.704C147.903 67.44 148.319 66.976 149.471 66.928V66.8H145.855ZM158.247 73.952C157.799 76.896 157.271 77.776 154.743 77.776H152.535V72.368H154.135C155.463 72.368 155.927 72.912 156.183 74.608H156.311V69.92H156.183C155.927 71.616 155.463 72.144 154.135 72.144H152.535V67.024H154.791C156.919 67.024 157.383 67.792 157.959 70.224H158.087L157.735 66.8H150.183V66.928C151.239 66.976 151.447 67.312 151.447 68.192V76.448C151.447 77.6 151.239 77.824 150.183 77.872V78H157.975L158.375 73.952H158.247ZM159.652 78H163.268V77.872C162.212 77.824 162.004 77.6 162.004 76.448V72.384H163.108C164.532 72.384 164.948 72.72 165.652 74.24L166.548 76.192C166.804 76.752 167.204 77.6 167.444 78H169.492V77.872C168.676 77.792 168.18 77.248 167.7 76.176L166.772 74.112C166.196 72.832 165.124 72.288 163.876 72.288V72.224C165.748 72.224 167.444 71.36 167.444 69.488C167.444 67.712 166.356 66.8 163.508 66.8H159.652V66.928C160.708 66.976 160.916 67.312 160.916 68.192V76.448C160.916 77.6 160.708 77.824 159.652 77.872V78ZM162.004 72.16V67.024H163.364C165.796 67.024 166.244 68.064 166.244 69.504C166.244 71.296 165.38 72.16 162.996 72.16H162.004ZM173.53 78.32C175.882 78.32 177.338 77.12 177.338 75.088C177.338 73.616 176.554 72.752 175.018 72.08L173.274 71.296C171.642 70.576 171.018 70.112 171.018 68.928C171.018 67.552 172.042 66.784 173.578 66.784C175.658 66.784 176.65 68 176.81 70.48H176.922V67.168C175.818 66.608 174.778 66.48 173.978 66.48C171.802 66.48 170.346 67.584 170.346 69.408C170.346 70.976 171.21 71.792 172.858 72.496L174.378 73.168C175.802 73.776 176.49 74.368 176.49 75.6C176.49 77.152 175.498 78.016 173.898 78.016C171.658 78.016 170.586 76.464 170.426 74.176H170.298V77.52C171.242 78.016 172.41 78.32 173.53 78.32Z" fill="black"/>
<path d="M47.5716 9.09595L47.3959 1.60767L10.0637 2.46662L6.46008 5.55003L0 42.617L4.04304 46.9999L42.2761 43.2557L41.551 35.8115L8.19595 39.0711L10.0856 28.2572L35.1788 26.6053L34.6954 19.1391L11.404 20.6808L13.2937 9.8668L47.5716 9.09595Z" fill="#191918"/>
<path d="M58.2067 0L53.5704 3.30366L50.0986 42.3308L54.4054 46.3613L89.3425 40.7891L92.4846 37.4194L94.66 12.4658L91.8474 8.50141L58.2067 0ZM85.2995 33.8294L57.965 38.1903L60.6237 8.32521L86.9255 14.9545L85.2995 33.8294Z" fill="#191918"/>
<path d="M120.148 19.3154V26.8037H138.408V36.2081L104.833 37.6397L108.832 9.4485L141.748 12.3777L142.407 4.91148L105.954 1.69592L101.933 4.88946L96.813 41.0535L100.658 45.3262L142.297 43.5422L145.879 39.7981V23.0596L142.143 19.3154H120.148Z" fill="#191918"/>
<path d="M193.978 10.9462L194 3.45787L160.403 3.41382L156.734 6.51925L150.845 40.0403L154.537 44.4232L191.759 44.3791V36.8909L158.975 36.9349L160.491 28.3454L182.86 29.6448L183.277 22.1786L161.788 20.9232L163.546 10.9021L193.978 10.9462Z" fill="#191918"/>
</svg>
